HIERARCHY
ROOT RootJoint
{
    OFFSET   0.000000   0.000000   0.000000
    CHANNELS 6 Xposition Yposition Zposition Xrotation Yrotation Zrotation
    JOINT pelvis_lowerback
    {
        OFFSET   0.000000   0.093605   0.000000
        CHANNELS 3 Xrotation Yrotation Zrotation
        JOINT lowerback_torso
        {
            OFFSET   0.000000   0.100000   0.000000
            CHANNELS 3 Xrotation Yrotation Zrotation
            JOINT torso_head
            {
                OFFSET   0.000000   0.282350   0.000000
                CHANNELS 3 Xrotation Yrotation Zrotation
                End Site
                {
                    OFFSET   0.000000   0.192650   0.000000
                }
            }
            JOINT rTorso_Clavicle
            {
                OFFSET  -0.001000   0.157500   0.000000
                CHANNELS 3 Xrotation Yrotation Zrotation
                JOINT rShoulder
                {
                    OFFSET  -0.117647   0.000000   0.000000
                    CHANNELS 3 Xrotation Yrotation Zrotation
                    JOINT rElbow
                    {
                        OFFSET  -0.245000   0.000000   0.000000
                        CHANNELS 3 Xrotation Yrotation Zrotation
                        JOINT rWrist
                        {
                            OFFSET  -0.240000   0.000000   0.000000
                            CHANNELS 3 Xrotation Yrotation Zrotation
                            End Site
                            {
                                OFFSET  -0.116353  -0.002500   0.000000
                            }
                        }
                    }
                }
            }
            JOINT lTorso_Clavicle
            {
                OFFSET   0.001000   0.157500   0.000000
                CHANNELS 3 Xrotation Yrotation Zrotation
                JOINT lShoulder
                {
                    OFFSET   0.117647   0.000000   0.000000
                    CHANNELS 3 Xrotation Yrotation Zrotation
                    JOINT lElbow
                    {
                        OFFSET   0.245000   0.000000   0.000000
                        CHANNELS 3 Xrotation Yrotation Zrotation
                        JOINT lWrist
                        {
                            OFFSET   0.240000   0.000000   0.000000
                            CHANNELS 3 Xrotation Yrotation Zrotation
                            End Site
                            {
                                OFFSET   0.116353  -0.002500   0.000000
                            }
                        }
                    }
                }
            }
        }
    }
    JOINT rHip
    {
        OFFSET  -0.100000  -0.051395   0.000000
        CHANNELS 3 Xrotation Yrotation Zrotation
        JOINT rKnee
        {
            OFFSET   0.000000  -0.410000   0.000000
            CHANNELS 3 Xrotation Yrotation Zrotation
            JOINT rAnkle
            {
                OFFSET   0.000000  -0.390000   0.000000
                CHANNELS 3 Xrotation Yrotation Zrotation
                JOINT rToeJoint
                {
                    OFFSET   0.000000  -0.050000   0.130000
                    CHANNELS 3 Xrotation Yrotation Zrotation
                    End Site
                    {
                        OFFSET  -0.010000   0.002000   0.060000
                    }
                }
            }
        }
    }
    JOINT lHip
    {
        OFFSET   0.100000  -0.051395   0.000000
        CHANNELS 3 Xrotation Yrotation Zrotation
        JOINT lKnee
        {
            OFFSET   0.000000  -0.410000   0.000000
            CHANNELS 3 Xrotation Yrotation Zrotation
            JOINT lAnkle
            {
                OFFSET   0.000000  -0.390000   0.000000
                CHANNELS 3 Xrotation Yrotation Zrotation
                JOINT lToeJoint
                {
                    OFFSET   0.000000  -0.050000   0.130000
                    CHANNELS 3 Xrotation Yrotation Zrotation
                    End Site
                    {
                        OFFSET   0.010000   0.002000   0.060000
                    }
                }
            }
        }
    }
}
MOTION
Frames: 14
Frame Time:   0.008333
 -2.376719   0.925631   3.975860   0.000000   0.000000   0.000000   0.000000   0.000000   0.000000   0.000000   0.000000   0.000000   0.000000   0.000000   0.000000   0.000000   0.000000   0.000000   0.000000   0.000000   0.000000   0.000000   0.000000   0.000000   0.000000   0.000000   0.000000   0.000000   0.000000   0.000000   0.000000   0.000000   0.000000   0.000000   0.000000   0.000000   0.000000   0.000000   0.000000   0.000000   0.000000   0.000000   0.000000   0.000000   0.000000   0.000000   0.000000   0.000000   0.000000   0.000000   0.000000   0.000000   0.000000   0.000000   0.000000   0.000000   0.000000   0.000000   0.000000   0.000000   0.000000   0.000000   0.000000
 -2.376432   0.926233   3.976312  -1.034412   0.142247   0.020134   1.063389   0.025378   0.047219   0.190412  -0.207974  -0.003088  -0.099537   0.097197  -0.003285   0.171206  -0.198704   0.327690   1.022377   0.504380   1.986038   0.011515   0.552165  -0.006877   0.595204  -0.591988  -2.627531   0.185188   0.143312  -0.618289   1.191503  -0.322857  -1.880826   0.015885  -0.741738   0.010446   0.631565   0.527458   2.751031   0.957486  -0.464203  -0.236162   0.815176   0.001536  -0.002300  -1.028994  -0.717919   0.025312  -0.090165  -0.000153   0.000816   0.922189   0.330644   0.133364   0.859779  -0.001104   0.003560  -0.983496   0.513606  -0.002073   0.283499  -0.000369   0.002439
 -2.376064   0.927257   3.976880  -2.124965   0.321664   0.050475   2.058230   0.032986   0.110732   0.456827  -0.436126  -0.004997  -0.165563   0.190087   0.004788   0.341993  -0.284363   1.353117   2.006541   1.131847   4.529505   0.027393   1.114896  -0.012159   1.219609  -0.954209  -4.535297   0.371434   0.148707  -1.975865   2.346027  -0.795598  -4.362653   0.037638  -1.489533   0.018488   1.302214   0.771826   4.751278   1.949025  -0.943417  -0.650204   1.744340   0.004314  -0.004360  -1.988501  -1.403543   0.032317  -0.219004  -0.000560   0.001754   1.895211   0.682601   0.416346   1.829501  -0.003290   0.007436  -1.900123   1.005633   0.007280   0.506326  -0.000889   0.003945
 -2.375670   0.928282   3.977525  -3.166540   0.507641   0.087090   2.961805   0.028686   0.177072   0.697774  -0.664703  -0.006112  -0.229518   0.277024   0.018209   0.499079  -0.288014   2.808503   2.938309   1.856565   7.437164   0.043536   1.662061  -0.015676   1.825826  -1.152856  -5.631442   0.539851   0.059684  -3.766593   3.450434  -1.389348  -7.229367   0.059634  -2.213892   0.023995   1.956322   0.827161   5.899645   2.889434  -1.409199  -1.198061   2.646307   0.007430  -0.005902  -2.882031  -2.046205   0.026120  -0.337716  -0.001005   0.002349   2.838904   1.029886   0.829184   2.770702  -0.005894   0.010543  -2.753970   1.467575   0.025059   0.709040  -0.001482   0.004928
 -2.375271   0.929003   3.978235  -4.143305   0.685529   0.127431   3.784262   0.017583   0.241023   0.902422  -0.887286  -0.007597  -0.296684   0.358260   0.033410   0.641603  -0.240821   4.507940   3.814081   2.663784  10.587527   0.057880   2.186947  -0.017840   2.414076  -1.237626  -6.127297   0.687662  -0.084983  -5.790729   4.502190  -2.085656 -10.347456   0.079073  -2.906994   0.027580   2.592319   0.756633   6.424426   3.764309  -1.859904  -1.846775   3.494979   0.010387  -0.007083  -3.716374  -2.647651   0.009286  -0.451245  -0.001449   0.002733   3.738411   1.369495   1.347755   3.659944  -0.008498   0.012795  -3.551211   1.900399   0.049738   0.889791  -0.002039   0.005462
 -2.374877   0.929193   3.979008  -5.055730   0.848268   0.169641   4.536164   0.002469   0.300603   1.075830  -1.101146  -0.010314  -0.365409   0.434112   0.048748   0.769808  -0.165229   6.326476   4.630943   3.540712  13.897544   0.069466   2.685839  -0.019012   2.983614  -1.245484  -6.219499   0.814588  -0.258878  -7.918997   5.497986  -2.869212 -13.626258   0.094703  -3.564852   0.029763   3.208041   0.604827   6.533103   4.572702  -2.294885  -2.570251   4.287784   0.012936  -0.008003  -4.496118  -3.210080  -0.016066  -0.560055  -0.001858   0.002965   4.590970   1.700168   1.948920   4.495725  -0.010862   0.014298  -4.296005   2.305505   0.079939   1.050816  -0.002508   0.005659
 -2.374542   0.928670   3.979838  -5.907733   0.992148   0.215721   5.226967  -0.016008   0.346891   1.225142  -1.306499  -0.031918  -0.434025   0.504971   0.068351   0.884755  -0.075158   8.189689   5.386202   4.478073  17.317462   0.078026   3.157305  -0.019478   3.532947  -1.201346  -6.044044   0.923401  -0.448438 -10.125543   6.378465  -3.681549 -16.837834   0.105850  -4.188884   0.030617   3.803871   0.381475   6.286042   5.316937  -2.713436  -3.345947   5.027026   0.014941  -0.008714  -5.225195  -3.735727  -0.048210  -0.664245  -0.002206   0.003085   5.396747   2.021046   2.613164   5.280588  -0.012893   0.015187  -4.991895   2.684292   0.114375   1.194689  -0.002873   0.005618
 -2.374210   0.926715   3.980038  -6.162345   1.017691   0.207838   5.422200  -0.045844   0.490619   1.246469  -1.454717  -0.127063  -0.655513   0.394006   0.035961   1.053176   0.178446   9.481718   6.165971   5.399105  20.574169   0.083535   3.667064  -0.020795   4.053844  -1.053173  -4.761457   1.186266  -0.634773 -11.482214   7.121316  -4.443190 -20.158532   0.111727  -4.831832   0.031856   4.380457  -0.055860   5.057511   5.298438  -3.469355  -4.031316   5.690324   0.015404  -0.011807  -5.332314  -4.386091   0.208342  -0.568113  -0.001369   0.001302   5.676628   2.531358   3.239774   5.290373  -0.010361   0.012200  -5.005671   3.133363   0.043948   1.503684  -0.003661   0.007207
 -2.373893   0.923550   3.979962  -6.337182   1.024285   0.187773   5.638155  -0.076196   0.638625   1.230997  -1.581449  -0.210073  -0.887453   0.280550  -0.002808   1.185621   0.464949  10.511880   6.838628   6.323000  23.490908   0.084511   4.153591  -0.021537   4.560423  -0.841198  -3.542734   1.416353  -0.827799 -12.545551   7.774467  -5.191880 -23.126871   0.111418  -5.434487   0.032295   4.931075  -0.527940   3.899662   5.189057  -4.196173  -4.648131   6.254687   0.014878  -0.013537  -5.425029  -4.999102   0.446071  -0.432344  -0.000610  -0.000566   5.842488   3.013123   3.805135   5.155767  -0.007734   0.009111  -5.020224   3.553957  -0.021206   1.815084  -0.004078   0.008297
 -2.373584   0.919301   3.979763  -6.486527   1.024290   0.161961   5.872187  -0.097899   0.785054   1.223742  -1.690980  -0.277880  -1.101593   0.173733  -0.040846   1.288277   0.757833  11.353543   7.417796   7.228143  26.121528   0.082511   4.614061  -0.021763   5.046329  -0.604759  -2.542200   1.613196  -1.022664 -13.402153   8.346390  -5.922095 -25.795267   0.107342  -5.999266   0.031994   5.453549  -0.991017   2.975807   5.062415  -4.873508  -5.203819   6.760070   0.013903  -0.014305  -5.510943  -5.571707   0.666949  -0.307841  -0.000105  -0.001846   5.943493   3.461360   4.309040   4.988547  -0.005581   0.006557  -5.035880   3.946143  -0.081899   2.097051  -0.004124   0.008763
 -2.373253   0.917892   3.980002  -6.784774   0.882584   0.649012   6.180444  -0.077167   0.506261   1.290405  -1.762115  -0.513396  -1.291155   0.074707  -0.092767   1.373836   1.057112  12.333248   7.910088   8.117781  28.630175   0.079784   5.046284  -0.021395   5.511053  -0.384987  -1.737603   1.792997  -1.201710 -14.274166   8.852785  -6.612837 -28.242572   0.101855  -6.513753   0.030864   5.946602  -1.357277   2.316773   5.065312  -5.498467  -6.163810   7.222352   0.012422  -0.014740  -5.580661  -6.109416   0.870092  -0.120350   0.000313  -0.003594   6.032036   4.028266   3.869295   5.381451  -0.004404   0.006982  -4.400917   4.414867  -0.428830   2.398134  -0.002511   0.009540
 -2.373418   0.917602   3.980424  -7.025737   0.557088   0.699214   6.426582   0.023914   0.612417   1.343749  -1.758710  -0.621785  -1.464871  -0.014566  -0.146016   1.438258   1.352323  13.153553   8.330621   8.976678  30.931748   0.075958   5.457129  -0.020405   5.956543  -0.125542  -0.952002   1.982054  -1.333780 -15.095403   9.306950  -7.263742 -30.572699   0.095215  -6.992281   0.029443   6.411551  -1.706877   1.628144   4.916732  -6.130789  -6.412727   7.772490   0.009825  -0.016682  -5.500835  -6.649790   1.168031   0.034471   0.000034  -0.004954   6.306724   4.327727   3.820221   5.503302  -0.003548   0.005579  -4.515799   4.609420  -0.586300   1.905299  -0.002635   0.006865
 -2.373738   0.917400   3.980869  -7.190545   0.345470   0.731525   6.623147   0.061005   0.715736   1.365758  -1.787009  -0.684617  -1.630092  -0.100965  -0.182900   1.501381   1.609423  13.837993   8.698243   9.781420  33.048073   0.071038   5.839835  -0.019144   6.378362   0.136953  -0.218751   2.155910  -1.455292 -15.771555   9.709749  -7.882989 -32.709512   0.087647  -7.440136   0.027711   6.853861  -2.056579   0.970609   4.792880  -6.646354  -6.585390   8.215388   0.007687  -0.016335  -5.569939  -7.066319   1.359703   0.157891  -0.000104  -0.005228   6.524285   4.632014   3.811257   5.529729  -0.002846   0.004487  -4.565594   4.856382  -0.667143   1.526801  -0.002290   0.004340
 -2.374331   0.917314   3.981167  -7.212010   0.251851   0.740504   6.726122   0.064892   0.721856   1.380933  -1.784617  -0.639533  -1.809090  -0.217104  -0.183411   1.580335   1.754711  14.144478   8.982469  10.500556  34.710869   0.065002   6.259996  -0.018202   6.733627   0.582355   1.150539   2.334852  -1.518836 -16.017725   9.830768  -8.471536 -34.472464   0.080639  -8.005691   0.025753   7.252994  -2.499485  -0.252895   4.679703  -7.055936  -6.663059   8.393522   0.006056  -0.013891  -5.538639  -7.370534   1.542291   0.317467  -0.000306  -0.005330   6.590706   4.891699   3.855105   5.487226  -0.002261   0.003525  -4.577851   5.055779  -0.719882   1.386754  -0.001840   0.003020
